<?xml version="1.0" encoding="utf-8"?>
<!-- Generator: Adobe Illustrator 16.0.0, SVG Export Plug-In . SVG Version: 6.00 Build 0)  -->
<!DOCTYPE svg PUBLIC "-//W3C//DTD SVG 1.1//EN" "http://www.w3.org/Graphics/SVG/1.1/DTD/svg11.dtd">
<svg version="1.1" id="Layer_1" xmlns="http://www.w3.org/2000/svg" xmlns:xlink="http://www.w3.org/1999/xlink" x="0px" y="0px"
	 width="45px" height="30px" viewBox="0 0 45 30" enable-background="new 0 0 45 30" xml:space="preserve">
<g>
	<g>
		<defs>
			<rect id="SVGID_1_" x="0.281" y="-0.311" width="44.719" height="30.67"/>
		</defs>
		<clipPath id="SVGID_2_">
			<use xlink:href="#SVGID_1_"  overflow="visible"/>
		</clipPath>
		<rect x="0.859" y="-0.047" clip-path="url(#SVGID_2_)" fill="#15152D" width="30.05" height="30.05"/>
		<g clip-path="url(#SVGID_2_)">
			<defs>
				<rect id="SVGID_3_" x="-2.665" y="-13.132" width="56.939" height="56.938"/>
			</defs>
			<clipPath id="SVGID_4_">
				<use xlink:href="#SVGID_3_"  overflow="visible"/>
			</clipPath>
			<path clip-path="url(#SVGID_4_)" fill="#FFFFFF" d="M0.281-0.311h11.96c9.641,0,16.3,6.616,16.3,15.247v0.087
				c0,8.632-6.659,15.336-16.3,15.336H0.281V-0.311z M7.029,5.778v18.489h5.212c5.521,0,9.245-3.723,9.245-9.156v-0.088
				c0-5.433-3.724-9.245-9.245-9.245H7.029z"/>
		</g>
		<g clip-path="url(#SVGID_2_)">
			<defs>
				<rect id="SVGID_5_" x="-2.665" y="-13.132" width="56.939" height="56.938"/>
			</defs>
			<clipPath id="SVGID_6_">
				<use xlink:href="#SVGID_5_"  overflow="visible"/>
			</clipPath>
			<path clip-path="url(#SVGID_6_)" fill="#15152D" d="M30.909-0.047c0,0,14.588,13.978,0,30.05l-1.438-8.268l0.191-17.924
				L30.909-0.047z"/>
			<rect x="26.504" y="22.814" clip-path="url(#SVGID_6_)" fill="#15152D" width="18.496" height="7.188"/>
		</g>
	</g>
</g>
</svg>
